<mxfile host="app.diagrams.net" modified="2024-07-15T09:45:11.037Z" agent="Mozilla/5.0 (Windows NT 10.0; Win64; x64) AppleWebKit/537.36 (KHTML, like Gecko) Chrome/126.0.0.0 Safari/537.36" etag="vKBKojYH4CdUQuUwspyS" version="24.6.5" type="github">
  <diagram id="6a731a19-8d31-9384-78a2-239565b7b9f0" name="Page-1">
    <mxGraphModel dx="1434" dy="738" grid="1" gridSize="10" guides="1" tooltips="1" connect="1" arrows="1" fold="1" page="1" pageScale="1" pageWidth="2336" pageHeight="1654" background="none" math="0" shadow="0">
      <root>
        <mxCell id="0" />
        <mxCell id="1" parent="0" />
        <mxCell id="2" value="start" style="shape=mxgraph.flowchart.terminator;strokeWidth=2;gradientColor=none;gradientDirection=north;fontStyle=0;html=1;" parent="1" vertex="1">
          <mxGeometry x="260" y="60" width="120" height="30" as="geometry" />
        </mxCell>
        <mxCell id="7" style="fontStyle=1;strokeColor=#003366;strokeWidth=1;html=1;entryX=0.5;entryY=0;entryDx=0;entryDy=0;" parent="1" source="2" target="nVV3wn96EIWODX-KKn9h-55" edge="1">
          <mxGeometry relative="1" as="geometry">
            <mxPoint x="320" y="130" as="targetPoint" />
          </mxGeometry>
        </mxCell>
        <mxCell id="40" value="end" style="shape=mxgraph.flowchart.terminator;strokeWidth=2;gradientColor=none;gradientDirection=north;fontStyle=0;html=1;" parent="1" vertex="1">
          <mxGeometry x="260" y="840" width="120" height="30" as="geometry" />
        </mxCell>
        <mxCell id="4HKsZSxaPu6WtMEKS9RP-40" value="" style="edgeStyle=orthogonalEdgeStyle;rounded=0;orthogonalLoop=1;jettySize=auto;html=1;" edge="1" parent="1" source="nVV3wn96EIWODX-KKn9h-55" target="nVV3wn96EIWODX-KKn9h-56">
          <mxGeometry relative="1" as="geometry" />
        </mxCell>
        <mxCell id="nVV3wn96EIWODX-KKn9h-55" value="onRecv Websocket Message" style="rounded=0;whiteSpace=wrap;html=1;" parent="1" vertex="1">
          <mxGeometry x="260" y="140" width="120" height="60" as="geometry" />
        </mxCell>
        <mxCell id="nVV3wn96EIWODX-KKn9h-73" value="" style="edgeStyle=orthogonalEdgeStyle;rounded=0;orthogonalLoop=1;jettySize=auto;html=1;" parent="1" source="nVV3wn96EIWODX-KKn9h-56" target="nVV3wn96EIWODX-KKn9h-58" edge="1">
          <mxGeometry relative="1" as="geometry" />
        </mxCell>
        <mxCell id="nVV3wn96EIWODX-KKn9h-56" value="Service.distribute(msg)" style="rounded=0;whiteSpace=wrap;html=1;" parent="1" vertex="1">
          <mxGeometry x="260" y="260" width="120" height="60" as="geometry" />
        </mxCell>
        <mxCell id="nVV3wn96EIWODX-KKn9h-69" value="" style="edgeStyle=orthogonalEdgeStyle;rounded=0;orthogonalLoop=1;jettySize=auto;html=1;" parent="1" source="nVV3wn96EIWODX-KKn9h-58" target="nVV3wn96EIWODX-KKn9h-59" edge="1">
          <mxGeometry relative="1" as="geometry" />
        </mxCell>
        <mxCell id="nVV3wn96EIWODX-KKn9h-70" value="no" style="edgeLabel;html=1;align=center;verticalAlign=middle;resizable=0;points=[];" parent="nVV3wn96EIWODX-KKn9h-69" vertex="1" connectable="0">
          <mxGeometry x="0.1111" relative="1" as="geometry">
            <mxPoint as="offset" />
          </mxGeometry>
        </mxCell>
        <mxCell id="nVV3wn96EIWODX-KKn9h-71" value="" style="edgeStyle=orthogonalEdgeStyle;rounded=0;orthogonalLoop=1;jettySize=auto;html=1;" parent="1" source="nVV3wn96EIWODX-KKn9h-58" target="nVV3wn96EIWODX-KKn9h-60" edge="1">
          <mxGeometry relative="1" as="geometry" />
        </mxCell>
        <mxCell id="nVV3wn96EIWODX-KKn9h-72" value="yes" style="edgeLabel;html=1;align=center;verticalAlign=middle;resizable=0;points=[];" parent="nVV3wn96EIWODX-KKn9h-71" vertex="1" connectable="0">
          <mxGeometry x="-0.58" y="1" relative="1" as="geometry">
            <mxPoint as="offset" />
          </mxGeometry>
        </mxCell>
        <mxCell id="nVV3wn96EIWODX-KKn9h-58" value="have TaskID?" style="rhombus;whiteSpace=wrap;html=1;" parent="1" vertex="1">
          <mxGeometry x="280" y="350" width="80" height="80" as="geometry" />
        </mxCell>
        <mxCell id="nVV3wn96EIWODX-KKn9h-63" style="edgeStyle=orthogonalEdgeStyle;rounded=0;orthogonalLoop=1;jettySize=auto;html=1;exitX=0.5;exitY=1;exitDx=0;exitDy=0;" parent="1" source="nVV3wn96EIWODX-KKn9h-59" target="nVV3wn96EIWODX-KKn9h-62" edge="1">
          <mxGeometry relative="1" as="geometry" />
        </mxCell>
        <mxCell id="nVV3wn96EIWODX-KKn9h-59" value="getTaskID by rule match&lt;div&gt;also set index for msg&lt;/div&gt;" style="rounded=0;whiteSpace=wrap;html=1;" parent="1" vertex="1">
          <mxGeometry x="450" y="360" width="120" height="60" as="geometry" />
        </mxCell>
        <mxCell id="nVV3wn96EIWODX-KKn9h-82" value="" style="edgeStyle=orthogonalEdgeStyle;rounded=0;orthogonalLoop=1;jettySize=auto;html=1;" parent="1" source="nVV3wn96EIWODX-KKn9h-60" target="nVV3wn96EIWODX-KKn9h-74" edge="1">
          <mxGeometry relative="1" as="geometry" />
        </mxCell>
        <mxCell id="nVV3wn96EIWODX-KKn9h-60" value="pushTaskMsg by taskID" style="rounded=0;whiteSpace=wrap;html=1;" parent="1" vertex="1">
          <mxGeometry x="260" y="470" width="120" height="80" as="geometry" />
        </mxCell>
        <mxCell id="nVV3wn96EIWODX-KKn9h-64" style="edgeStyle=orthogonalEdgeStyle;rounded=0;orthogonalLoop=1;jettySize=auto;html=1;exitX=0;exitY=0.5;exitDx=0;exitDy=0;entryX=1;entryY=0.5;entryDx=0;entryDy=0;" parent="1" source="nVV3wn96EIWODX-KKn9h-62" target="nVV3wn96EIWODX-KKn9h-60" edge="1">
          <mxGeometry relative="1" as="geometry" />
        </mxCell>
        <mxCell id="nVV3wn96EIWODX-KKn9h-65" value="no" style="edgeLabel;html=1;align=center;verticalAlign=middle;resizable=0;points=[];" parent="nVV3wn96EIWODX-KKn9h-64" vertex="1" connectable="0">
          <mxGeometry x="0.0222" relative="1" as="geometry">
            <mxPoint as="offset" />
          </mxGeometry>
        </mxCell>
        <mxCell id="nVV3wn96EIWODX-KKn9h-67" style="edgeStyle=orthogonalEdgeStyle;rounded=0;orthogonalLoop=1;jettySize=auto;html=1;entryX=0;entryY=0.5;entryDx=0;entryDy=0;" parent="1" source="nVV3wn96EIWODX-KKn9h-62" target="nVV3wn96EIWODX-KKn9h-66" edge="1">
          <mxGeometry relative="1" as="geometry" />
        </mxCell>
        <mxCell id="nVV3wn96EIWODX-KKn9h-68" value="yes" style="edgeLabel;html=1;align=center;verticalAlign=middle;resizable=0;points=[];" parent="nVV3wn96EIWODX-KKn9h-67" vertex="1" connectable="0">
          <mxGeometry relative="1" as="geometry">
            <mxPoint as="offset" />
          </mxGeometry>
        </mxCell>
        <mxCell id="nVV3wn96EIWODX-KKn9h-62" value="still no taskID?" style="rhombus;whiteSpace=wrap;html=1;" parent="1" vertex="1">
          <mxGeometry x="470" y="470" width="80" height="80" as="geometry" />
        </mxCell>
        <mxCell id="nVV3wn96EIWODX-KKn9h-66" value="do nothing?" style="rounded=0;whiteSpace=wrap;html=1;" parent="1" vertex="1">
          <mxGeometry x="610" y="470" width="120" height="80" as="geometry" />
        </mxCell>
        <mxCell id="nVV3wn96EIWODX-KKn9h-81" value="" style="edgeStyle=orthogonalEdgeStyle;rounded=0;orthogonalLoop=1;jettySize=auto;html=1;" parent="1" source="nVV3wn96EIWODX-KKn9h-74" target="nVV3wn96EIWODX-KKn9h-76" edge="1">
          <mxGeometry relative="1" as="geometry" />
        </mxCell>
        <mxCell id="nVV3wn96EIWODX-KKn9h-74" value="exec msg handle callback" style="rounded=0;whiteSpace=wrap;html=1;" parent="1" vertex="1">
          <mxGeometry x="260" y="610" width="120" height="60" as="geometry" />
        </mxCell>
        <mxCell id="nVV3wn96EIWODX-KKn9h-80" value="" style="edgeStyle=orthogonalEdgeStyle;rounded=0;orthogonalLoop=1;jettySize=auto;html=1;" parent="1" source="nVV3wn96EIWODX-KKn9h-76" target="nVV3wn96EIWODX-KKn9h-78" edge="1">
          <mxGeometry relative="1" as="geometry" />
        </mxCell>
        <mxCell id="s6nTeT1l2O33-AzZqrfx-43" value="" style="edgeStyle=orthogonalEdgeStyle;rounded=0;orthogonalLoop=1;jettySize=auto;html=1;" parent="1" source="nVV3wn96EIWODX-KKn9h-76" target="40" edge="1">
          <mxGeometry relative="1" as="geometry" />
        </mxCell>
        <mxCell id="nVV3wn96EIWODX-KKn9h-76" value="is return done?" style="rhombus;whiteSpace=wrap;html=1;" parent="1" vertex="1">
          <mxGeometry x="280" y="700" width="80" height="80" as="geometry" />
        </mxCell>
        <mxCell id="nVV3wn96EIWODX-KKn9h-84" style="edgeStyle=orthogonalEdgeStyle;rounded=0;orthogonalLoop=1;jettySize=auto;html=1;entryX=1;entryY=0.5;entryDx=0;entryDy=0;exitX=1;exitY=0.5;exitDx=0;exitDy=0;" parent="1" source="nVV3wn96EIWODX-KKn9h-78" target="nVV3wn96EIWODX-KKn9h-59" edge="1">
          <mxGeometry relative="1" as="geometry">
            <Array as="points">
              <mxPoint x="820" y="740" />
              <mxPoint x="820" y="390" />
            </Array>
          </mxGeometry>
        </mxCell>
        <mxCell id="nVV3wn96EIWODX-KKn9h-78" value="msg.distribute(NULL)" style="rounded=0;whiteSpace=wrap;html=1;" parent="1" vertex="1">
          <mxGeometry x="440" y="710" width="120" height="60" as="geometry" />
        </mxCell>
        <mxCell id="4HKsZSxaPu6WtMEKS9RP-41" value="start" style="shape=mxgraph.flowchart.terminator;strokeWidth=2;gradientColor=none;gradientDirection=north;fontStyle=0;html=1;" vertex="1" parent="1">
          <mxGeometry x="1110" y="60" width="120" height="30" as="geometry" />
        </mxCell>
        <mxCell id="4HKsZSxaPu6WtMEKS9RP-42" style="fontStyle=1;strokeColor=#003366;strokeWidth=1;html=1;entryX=0.5;entryY=0;entryDx=0;entryDy=0;" edge="1" parent="1" source="4HKsZSxaPu6WtMEKS9RP-41" target="4HKsZSxaPu6WtMEKS9RP-45">
          <mxGeometry relative="1" as="geometry">
            <mxPoint x="1170" y="130" as="targetPoint" />
          </mxGeometry>
        </mxCell>
        <mxCell id="4HKsZSxaPu6WtMEKS9RP-43" value="end" style="shape=mxgraph.flowchart.terminator;strokeWidth=2;gradientColor=none;gradientDirection=north;fontStyle=0;html=1;" vertex="1" parent="1">
          <mxGeometry x="1110" y="840" width="120" height="30" as="geometry" />
        </mxCell>
        <mxCell id="4HKsZSxaPu6WtMEKS9RP-44" value="" style="edgeStyle=orthogonalEdgeStyle;rounded=0;orthogonalLoop=1;jettySize=auto;html=1;" edge="1" parent="1" source="4HKsZSxaPu6WtMEKS9RP-45" target="4HKsZSxaPu6WtMEKS9RP-47">
          <mxGeometry relative="1" as="geometry" />
        </mxCell>
        <mxCell id="4HKsZSxaPu6WtMEKS9RP-45" value="onRecv Websocket Message" style="rounded=0;whiteSpace=wrap;html=1;" vertex="1" parent="1">
          <mxGeometry x="1110" y="140" width="120" height="60" as="geometry" />
        </mxCell>
        <mxCell id="4HKsZSxaPu6WtMEKS9RP-46" value="" style="edgeStyle=orthogonalEdgeStyle;rounded=0;orthogonalLoop=1;jettySize=auto;html=1;" edge="1" parent="1" source="4HKsZSxaPu6WtMEKS9RP-47" target="4HKsZSxaPu6WtMEKS9RP-52">
          <mxGeometry relative="1" as="geometry" />
        </mxCell>
        <mxCell id="4HKsZSxaPu6WtMEKS9RP-47" value="Service.distribute(msg)&lt;div&gt;if distribute fail, delete msg&lt;/div&gt;" style="rounded=0;whiteSpace=wrap;html=1;" vertex="1" parent="1">
          <mxGeometry x="1110" y="260" width="120" height="60" as="geometry" />
        </mxCell>
        <mxCell id="4HKsZSxaPu6WtMEKS9RP-48" value="" style="edgeStyle=orthogonalEdgeStyle;rounded=0;orthogonalLoop=1;jettySize=auto;html=1;" edge="1" parent="1" source="4HKsZSxaPu6WtMEKS9RP-52" target="4HKsZSxaPu6WtMEKS9RP-54">
          <mxGeometry relative="1" as="geometry" />
        </mxCell>
        <mxCell id="4HKsZSxaPu6WtMEKS9RP-49" value="no" style="edgeLabel;html=1;align=center;verticalAlign=middle;resizable=0;points=[];" vertex="1" connectable="0" parent="4HKsZSxaPu6WtMEKS9RP-48">
          <mxGeometry x="0.1111" relative="1" as="geometry">
            <mxPoint as="offset" />
          </mxGeometry>
        </mxCell>
        <mxCell id="4HKsZSxaPu6WtMEKS9RP-50" value="" style="edgeStyle=orthogonalEdgeStyle;rounded=0;orthogonalLoop=1;jettySize=auto;html=1;" edge="1" parent="1" source="4HKsZSxaPu6WtMEKS9RP-52" target="4HKsZSxaPu6WtMEKS9RP-56">
          <mxGeometry relative="1" as="geometry" />
        </mxCell>
        <mxCell id="4HKsZSxaPu6WtMEKS9RP-51" value="yes" style="edgeLabel;html=1;align=center;verticalAlign=middle;resizable=0;points=[];" vertex="1" connectable="0" parent="4HKsZSxaPu6WtMEKS9RP-50">
          <mxGeometry x="-0.58" y="1" relative="1" as="geometry">
            <mxPoint as="offset" />
          </mxGeometry>
        </mxCell>
        <mxCell id="4HKsZSxaPu6WtMEKS9RP-52" value="have TaskID?" style="rhombus;whiteSpace=wrap;html=1;" vertex="1" parent="1">
          <mxGeometry x="1130" y="350" width="80" height="80" as="geometry" />
        </mxCell>
        <mxCell id="4HKsZSxaPu6WtMEKS9RP-53" style="edgeStyle=orthogonalEdgeStyle;rounded=0;orthogonalLoop=1;jettySize=auto;html=1;exitX=0.5;exitY=1;exitDx=0;exitDy=0;" edge="1" parent="1" source="4HKsZSxaPu6WtMEKS9RP-54" target="4HKsZSxaPu6WtMEKS9RP-61">
          <mxGeometry relative="1" as="geometry" />
        </mxCell>
        <mxCell id="4HKsZSxaPu6WtMEKS9RP-54" value="msg.distribute(root)" style="rounded=0;whiteSpace=wrap;html=1;" vertex="1" parent="1">
          <mxGeometry x="1300" y="360" width="120" height="60" as="geometry" />
        </mxCell>
        <mxCell id="4HKsZSxaPu6WtMEKS9RP-55" value="" style="edgeStyle=orthogonalEdgeStyle;rounded=0;orthogonalLoop=1;jettySize=auto;html=1;" edge="1" parent="1" source="4HKsZSxaPu6WtMEKS9RP-56" target="4HKsZSxaPu6WtMEKS9RP-64">
          <mxGeometry relative="1" as="geometry" />
        </mxCell>
        <mxCell id="4HKsZSxaPu6WtMEKS9RP-56" value="&lt;div&gt;return pushTaskMsg()&lt;/div&gt;" style="rounded=0;whiteSpace=wrap;html=1;" vertex="1" parent="1">
          <mxGeometry x="1110" y="470" width="120" height="80" as="geometry" />
        </mxCell>
        <mxCell id="4HKsZSxaPu6WtMEKS9RP-57" style="edgeStyle=orthogonalEdgeStyle;rounded=0;orthogonalLoop=1;jettySize=auto;html=1;exitX=0;exitY=0.5;exitDx=0;exitDy=0;entryX=1;entryY=0.5;entryDx=0;entryDy=0;" edge="1" parent="1" source="4HKsZSxaPu6WtMEKS9RP-61" target="4HKsZSxaPu6WtMEKS9RP-56">
          <mxGeometry relative="1" as="geometry" />
        </mxCell>
        <mxCell id="4HKsZSxaPu6WtMEKS9RP-58" value="yes" style="edgeLabel;html=1;align=center;verticalAlign=middle;resizable=0;points=[];" vertex="1" connectable="0" parent="4HKsZSxaPu6WtMEKS9RP-57">
          <mxGeometry x="0.0222" relative="1" as="geometry">
            <mxPoint as="offset" />
          </mxGeometry>
        </mxCell>
        <mxCell id="4HKsZSxaPu6WtMEKS9RP-59" style="edgeStyle=orthogonalEdgeStyle;rounded=0;orthogonalLoop=1;jettySize=auto;html=1;entryX=0;entryY=0.5;entryDx=0;entryDy=0;" edge="1" parent="1" source="4HKsZSxaPu6WtMEKS9RP-61" target="4HKsZSxaPu6WtMEKS9RP-62">
          <mxGeometry relative="1" as="geometry" />
        </mxCell>
        <mxCell id="4HKsZSxaPu6WtMEKS9RP-60" value="no" style="edgeLabel;html=1;align=center;verticalAlign=middle;resizable=0;points=[];" vertex="1" connectable="0" parent="4HKsZSxaPu6WtMEKS9RP-59">
          <mxGeometry relative="1" as="geometry">
            <mxPoint as="offset" />
          </mxGeometry>
        </mxCell>
        <mxCell id="4HKsZSxaPu6WtMEKS9RP-61" value="match taskID?" style="rhombus;whiteSpace=wrap;html=1;" vertex="1" parent="1">
          <mxGeometry x="1320" y="470" width="80" height="80" as="geometry" />
        </mxCell>
        <mxCell id="4HKsZSxaPu6WtMEKS9RP-62" value="return false" style="rounded=0;whiteSpace=wrap;html=1;" vertex="1" parent="1">
          <mxGeometry x="1460" y="470" width="120" height="80" as="geometry" />
        </mxCell>
        <mxCell id="4HKsZSxaPu6WtMEKS9RP-63" value="" style="edgeStyle=orthogonalEdgeStyle;rounded=0;orthogonalLoop=1;jettySize=auto;html=1;" edge="1" parent="1" source="4HKsZSxaPu6WtMEKS9RP-64" target="4HKsZSxaPu6WtMEKS9RP-67">
          <mxGeometry relative="1" as="geometry" />
        </mxCell>
        <mxCell id="4HKsZSxaPu6WtMEKS9RP-64" value="exec msg handle callback" style="rounded=0;whiteSpace=wrap;html=1;" vertex="1" parent="1">
          <mxGeometry x="1110" y="610" width="120" height="60" as="geometry" />
        </mxCell>
        <mxCell id="4HKsZSxaPu6WtMEKS9RP-65" value="" style="edgeStyle=orthogonalEdgeStyle;rounded=0;orthogonalLoop=1;jettySize=auto;html=1;" edge="1" parent="1" source="4HKsZSxaPu6WtMEKS9RP-67" target="4HKsZSxaPu6WtMEKS9RP-69">
          <mxGeometry relative="1" as="geometry" />
        </mxCell>
        <mxCell id="4HKsZSxaPu6WtMEKS9RP-66" value="" style="edgeStyle=orthogonalEdgeStyle;rounded=0;orthogonalLoop=1;jettySize=auto;html=1;" edge="1" parent="1" source="4HKsZSxaPu6WtMEKS9RP-67" target="4HKsZSxaPu6WtMEKS9RP-43">
          <mxGeometry relative="1" as="geometry" />
        </mxCell>
        <mxCell id="4HKsZSxaPu6WtMEKS9RP-67" value="is return done?" style="rhombus;whiteSpace=wrap;html=1;" vertex="1" parent="1">
          <mxGeometry x="1130" y="700" width="80" height="80" as="geometry" />
        </mxCell>
        <mxCell id="4HKsZSxaPu6WtMEKS9RP-68" style="edgeStyle=orthogonalEdgeStyle;rounded=0;orthogonalLoop=1;jettySize=auto;html=1;entryX=1;entryY=0.5;entryDx=0;entryDy=0;exitX=1;exitY=0.5;exitDx=0;exitDy=0;" edge="1" parent="1" source="4HKsZSxaPu6WtMEKS9RP-69" target="4HKsZSxaPu6WtMEKS9RP-54">
          <mxGeometry relative="1" as="geometry">
            <Array as="points">
              <mxPoint x="1670" y="740" />
              <mxPoint x="1670" y="390" />
            </Array>
          </mxGeometry>
        </mxCell>
        <mxCell id="4HKsZSxaPu6WtMEKS9RP-69" value="msg.distribute(NULL)" style="rounded=0;whiteSpace=wrap;html=1;" vertex="1" parent="1">
          <mxGeometry x="1290" y="710" width="120" height="60" as="geometry" />
        </mxCell>
      </root>
    </mxGraphModel>
  </diagram>
</mxfile>
